<mxfile host="app.diagrams.net" modified="2023-11-20T11:15:44.832Z" agent="Mozilla/5.0 (X11; Linux x86_64) AppleWebKit/537.36 (KHTML, like Gecko) Chrome/119.0.0.0 Safari/537.36" etag="p6SL04pcfaJMRRrkUKfU" version="22.1.3" type="github">
  <diagram name="Page-1" id="dXaeP0a0a7bspuQqwjA-">
    <mxGraphModel dx="1147" dy="607" grid="1" gridSize="10" guides="1" tooltips="1" connect="1" arrows="1" fold="1" page="1" pageScale="1" pageWidth="827" pageHeight="1169" math="0" shadow="0">
      <root>
        <mxCell id="0" />
        <mxCell id="1" parent="0" />
        <mxCell id="TZznOt2yjFlhheveqHtz-21" style="rounded=0;orthogonalLoop=1;jettySize=auto;html=1;exitX=0;exitY=0.5;exitDx=0;exitDy=0;entryX=1;entryY=0;entryDx=0;entryDy=0;endArrow=none;endFill=0;" parent="1" source="TZznOt2yjFlhheveqHtz-3" target="TZznOt2yjFlhheveqHtz-5" edge="1">
          <mxGeometry relative="1" as="geometry" />
        </mxCell>
        <mxCell id="TZznOt2yjFlhheveqHtz-22" style="rounded=0;orthogonalLoop=1;jettySize=auto;html=1;exitX=1;exitY=0.5;exitDx=0;exitDy=0;entryX=0;entryY=0;entryDx=0;entryDy=0;endArrow=none;endFill=0;" parent="1" source="TZznOt2yjFlhheveqHtz-3" target="TZznOt2yjFlhheveqHtz-8" edge="1">
          <mxGeometry relative="1" as="geometry" />
        </mxCell>
        <mxCell id="TZznOt2yjFlhheveqHtz-3" value="2" style="ellipse;whiteSpace=wrap;html=1;aspect=fixed;" parent="1" vertex="1">
          <mxGeometry x="560" y="180" width="40" height="40" as="geometry" />
        </mxCell>
        <mxCell id="TZznOt2yjFlhheveqHtz-32" style="rounded=0;orthogonalLoop=1;jettySize=auto;html=1;exitX=1;exitY=1;exitDx=0;exitDy=0;entryX=0.5;entryY=0;entryDx=0;entryDy=0;endArrow=none;endFill=0;" parent="1" source="TZznOt2yjFlhheveqHtz-5" target="TZznOt2yjFlhheveqHtz-7" edge="1">
          <mxGeometry relative="1" as="geometry" />
        </mxCell>
        <mxCell id="TZznOt2yjFlhheveqHtz-33" style="rounded=0;orthogonalLoop=1;jettySize=auto;html=1;exitX=0;exitY=1;exitDx=0;exitDy=0;entryX=0.5;entryY=0;entryDx=0;entryDy=0;endArrow=none;endFill=0;" parent="1" source="TZznOt2yjFlhheveqHtz-5" target="TZznOt2yjFlhheveqHtz-6" edge="1">
          <mxGeometry relative="1" as="geometry" />
        </mxCell>
        <mxCell id="TZznOt2yjFlhheveqHtz-5" value="4" style="ellipse;whiteSpace=wrap;html=1;aspect=fixed;" parent="1" vertex="1">
          <mxGeometry x="500" y="240" width="40" height="40" as="geometry" />
        </mxCell>
        <mxCell id="TZznOt2yjFlhheveqHtz-6" value="8" style="ellipse;whiteSpace=wrap;html=1;aspect=fixed;" parent="1" vertex="1">
          <mxGeometry x="470" y="300" width="40" height="40" as="geometry" />
        </mxCell>
        <mxCell id="TZznOt2yjFlhheveqHtz-7" value="9" style="ellipse;whiteSpace=wrap;html=1;aspect=fixed;" parent="1" vertex="1">
          <mxGeometry x="530" y="300" width="40" height="40" as="geometry" />
        </mxCell>
        <mxCell id="TZznOt2yjFlhheveqHtz-30" style="rounded=0;orthogonalLoop=1;jettySize=auto;html=1;exitX=0;exitY=1;exitDx=0;exitDy=0;entryX=0.5;entryY=0;entryDx=0;entryDy=0;endArrow=none;endFill=0;" parent="1" source="TZznOt2yjFlhheveqHtz-8" target="TZznOt2yjFlhheveqHtz-9" edge="1">
          <mxGeometry relative="1" as="geometry" />
        </mxCell>
        <mxCell id="TZznOt2yjFlhheveqHtz-31" style="rounded=0;orthogonalLoop=1;jettySize=auto;html=1;exitX=1;exitY=1;exitDx=0;exitDy=0;entryX=0.5;entryY=0;entryDx=0;entryDy=0;endArrow=none;endFill=0;" parent="1" source="TZznOt2yjFlhheveqHtz-8" target="TZznOt2yjFlhheveqHtz-10" edge="1">
          <mxGeometry relative="1" as="geometry" />
        </mxCell>
        <mxCell id="TZznOt2yjFlhheveqHtz-8" value="5" style="ellipse;whiteSpace=wrap;html=1;aspect=fixed;" parent="1" vertex="1">
          <mxGeometry x="620" y="240" width="40" height="40" as="geometry" />
        </mxCell>
        <mxCell id="TZznOt2yjFlhheveqHtz-9" value="10" style="ellipse;whiteSpace=wrap;html=1;aspect=fixed;" parent="1" vertex="1">
          <mxGeometry x="590" y="300" width="40" height="40" as="geometry" />
        </mxCell>
        <mxCell id="TZznOt2yjFlhheveqHtz-10" value="11" style="ellipse;whiteSpace=wrap;html=1;aspect=fixed;" parent="1" vertex="1">
          <mxGeometry x="650" y="300" width="40" height="40" as="geometry" />
        </mxCell>
        <mxCell id="TZznOt2yjFlhheveqHtz-19" style="rounded=0;orthogonalLoop=1;jettySize=auto;html=1;exitX=0;exitY=0.5;exitDx=0;exitDy=0;entryX=1;entryY=0;entryDx=0;entryDy=0;endArrow=none;endFill=0;" parent="1" source="TZznOt2yjFlhheveqHtz-18" target="TZznOt2yjFlhheveqHtz-3" edge="1">
          <mxGeometry relative="1" as="geometry" />
        </mxCell>
        <mxCell id="TZznOt2yjFlhheveqHtz-47" style="rounded=0;orthogonalLoop=1;jettySize=auto;html=1;exitX=1;exitY=0.5;exitDx=0;exitDy=0;entryX=0;entryY=0;entryDx=0;entryDy=0;endArrow=none;endFill=0;" parent="1" source="TZznOt2yjFlhheveqHtz-18" target="TZznOt2yjFlhheveqHtz-50" edge="1">
          <mxGeometry relative="1" as="geometry">
            <mxPoint x="845.8578643762689" y="185.85786437626905" as="targetPoint" />
          </mxGeometry>
        </mxCell>
        <mxCell id="TZznOt2yjFlhheveqHtz-18" value="1" style="ellipse;whiteSpace=wrap;html=1;aspect=fixed;fillColor=#e1d5e7;strokeColor=#9673a6;" parent="1" vertex="1">
          <mxGeometry x="680" y="120" width="40" height="40" as="geometry" />
        </mxCell>
        <mxCell id="TZznOt2yjFlhheveqHtz-48" style="rounded=0;orthogonalLoop=1;jettySize=auto;html=1;exitX=0;exitY=0.5;exitDx=0;exitDy=0;entryX=1;entryY=0;entryDx=0;entryDy=0;endArrow=none;endFill=0;" parent="1" source="TZznOt2yjFlhheveqHtz-50" target="TZznOt2yjFlhheveqHtz-53" edge="1">
          <mxGeometry relative="1" as="geometry" />
        </mxCell>
        <mxCell id="TZznOt2yjFlhheveqHtz-49" style="rounded=0;orthogonalLoop=1;jettySize=auto;html=1;exitX=1;exitY=0.5;exitDx=0;exitDy=0;entryX=0;entryY=0;entryDx=0;entryDy=0;endArrow=none;endFill=0;" parent="1" source="TZznOt2yjFlhheveqHtz-50" target="TZznOt2yjFlhheveqHtz-58" edge="1">
          <mxGeometry relative="1" as="geometry" />
        </mxCell>
        <mxCell id="TZznOt2yjFlhheveqHtz-50" value="3" style="ellipse;whiteSpace=wrap;html=1;aspect=fixed;" parent="1" vertex="1">
          <mxGeometry x="800" y="180" width="40" height="40" as="geometry" />
        </mxCell>
        <mxCell id="TZznOt2yjFlhheveqHtz-51" style="rounded=0;orthogonalLoop=1;jettySize=auto;html=1;exitX=1;exitY=1;exitDx=0;exitDy=0;entryX=0.5;entryY=0;entryDx=0;entryDy=0;endArrow=none;endFill=0;" parent="1" source="TZznOt2yjFlhheveqHtz-53" target="TZznOt2yjFlhheveqHtz-55" edge="1">
          <mxGeometry relative="1" as="geometry" />
        </mxCell>
        <mxCell id="TZznOt2yjFlhheveqHtz-52" style="rounded=0;orthogonalLoop=1;jettySize=auto;html=1;exitX=0;exitY=1;exitDx=0;exitDy=0;entryX=0.5;entryY=0;entryDx=0;entryDy=0;endArrow=none;endFill=0;" parent="1" source="TZznOt2yjFlhheveqHtz-53" target="TZznOt2yjFlhheveqHtz-54" edge="1">
          <mxGeometry relative="1" as="geometry" />
        </mxCell>
        <mxCell id="TZznOt2yjFlhheveqHtz-53" value="6" style="ellipse;whiteSpace=wrap;html=1;aspect=fixed;" parent="1" vertex="1">
          <mxGeometry x="740" y="240" width="40" height="40" as="geometry" />
        </mxCell>
        <mxCell id="TZznOt2yjFlhheveqHtz-54" value="12" style="ellipse;whiteSpace=wrap;html=1;aspect=fixed;" parent="1" vertex="1">
          <mxGeometry x="710" y="300" width="40" height="40" as="geometry" />
        </mxCell>
        <mxCell id="TZznOt2yjFlhheveqHtz-55" value="13" style="ellipse;whiteSpace=wrap;html=1;aspect=fixed;" parent="1" vertex="1">
          <mxGeometry x="770" y="300" width="40" height="40" as="geometry" />
        </mxCell>
        <mxCell id="TZznOt2yjFlhheveqHtz-56" style="rounded=0;orthogonalLoop=1;jettySize=auto;html=1;exitX=0;exitY=1;exitDx=0;exitDy=0;entryX=0.5;entryY=0;entryDx=0;entryDy=0;endArrow=none;endFill=0;" parent="1" source="TZznOt2yjFlhheveqHtz-58" target="TZznOt2yjFlhheveqHtz-59" edge="1">
          <mxGeometry relative="1" as="geometry" />
        </mxCell>
        <mxCell id="TZznOt2yjFlhheveqHtz-57" style="rounded=0;orthogonalLoop=1;jettySize=auto;html=1;exitX=1;exitY=1;exitDx=0;exitDy=0;entryX=0.5;entryY=0;entryDx=0;entryDy=0;endArrow=none;endFill=0;" parent="1" source="TZznOt2yjFlhheveqHtz-58" target="TZznOt2yjFlhheveqHtz-60" edge="1">
          <mxGeometry relative="1" as="geometry" />
        </mxCell>
        <mxCell id="TZznOt2yjFlhheveqHtz-58" value="7" style="ellipse;whiteSpace=wrap;html=1;aspect=fixed;" parent="1" vertex="1">
          <mxGeometry x="860" y="240" width="40" height="40" as="geometry" />
        </mxCell>
        <mxCell id="TZznOt2yjFlhheveqHtz-59" value="14" style="ellipse;whiteSpace=wrap;html=1;aspect=fixed;" parent="1" vertex="1">
          <mxGeometry x="830" y="300" width="40" height="40" as="geometry" />
        </mxCell>
        <mxCell id="TZznOt2yjFlhheveqHtz-60" value="15" style="ellipse;whiteSpace=wrap;html=1;aspect=fixed;" parent="1" vertex="1">
          <mxGeometry x="890" y="300" width="40" height="40" as="geometry" />
        </mxCell>
        <mxCell id="TZznOt2yjFlhheveqHtz-61" style="rounded=0;orthogonalLoop=1;jettySize=auto;html=1;exitX=0;exitY=0.5;exitDx=0;exitDy=0;entryX=1;entryY=0;entryDx=0;entryDy=0;endArrow=none;endFill=0;" parent="1" source="TZznOt2yjFlhheveqHtz-63" target="TZznOt2yjFlhheveqHtz-66" edge="1">
          <mxGeometry relative="1" as="geometry" />
        </mxCell>
        <mxCell id="TZznOt2yjFlhheveqHtz-62" style="rounded=0;orthogonalLoop=1;jettySize=auto;html=1;exitX=1;exitY=0.5;exitDx=0;exitDy=0;entryX=0;entryY=0;entryDx=0;entryDy=0;endArrow=none;endFill=0;" parent="1" source="TZznOt2yjFlhheveqHtz-63" target="TZznOt2yjFlhheveqHtz-71" edge="1">
          <mxGeometry relative="1" as="geometry" />
        </mxCell>
        <mxCell id="TZznOt2yjFlhheveqHtz-63" value="2" style="ellipse;whiteSpace=wrap;html=1;aspect=fixed;fillColor=#e1d5e7;strokeColor=#9673a6;" parent="1" vertex="1">
          <mxGeometry x="560" y="420" width="40" height="40" as="geometry" />
        </mxCell>
        <mxCell id="TZznOt2yjFlhheveqHtz-64" style="rounded=0;orthogonalLoop=1;jettySize=auto;html=1;exitX=1;exitY=1;exitDx=0;exitDy=0;entryX=0.5;entryY=0;entryDx=0;entryDy=0;endArrow=none;endFill=0;" parent="1" source="TZznOt2yjFlhheveqHtz-66" target="TZznOt2yjFlhheveqHtz-68" edge="1">
          <mxGeometry relative="1" as="geometry" />
        </mxCell>
        <mxCell id="TZznOt2yjFlhheveqHtz-65" style="rounded=0;orthogonalLoop=1;jettySize=auto;html=1;exitX=0;exitY=1;exitDx=0;exitDy=0;entryX=0.5;entryY=0;entryDx=0;entryDy=0;endArrow=none;endFill=0;" parent="1" source="TZznOt2yjFlhheveqHtz-66" target="TZznOt2yjFlhheveqHtz-67" edge="1">
          <mxGeometry relative="1" as="geometry" />
        </mxCell>
        <mxCell id="TZznOt2yjFlhheveqHtz-66" value="4" style="ellipse;whiteSpace=wrap;html=1;aspect=fixed;" parent="1" vertex="1">
          <mxGeometry x="500" y="480" width="40" height="40" as="geometry" />
        </mxCell>
        <mxCell id="TZznOt2yjFlhheveqHtz-67" value="8" style="ellipse;whiteSpace=wrap;html=1;aspect=fixed;" parent="1" vertex="1">
          <mxGeometry x="470" y="540" width="40" height="40" as="geometry" />
        </mxCell>
        <mxCell id="TZznOt2yjFlhheveqHtz-68" value="9" style="ellipse;whiteSpace=wrap;html=1;aspect=fixed;" parent="1" vertex="1">
          <mxGeometry x="530" y="540" width="40" height="40" as="geometry" />
        </mxCell>
        <mxCell id="TZznOt2yjFlhheveqHtz-69" style="rounded=0;orthogonalLoop=1;jettySize=auto;html=1;exitX=0;exitY=1;exitDx=0;exitDy=0;entryX=0.5;entryY=0;entryDx=0;entryDy=0;endArrow=none;endFill=0;" parent="1" source="TZznOt2yjFlhheveqHtz-71" target="TZznOt2yjFlhheveqHtz-72" edge="1">
          <mxGeometry relative="1" as="geometry" />
        </mxCell>
        <mxCell id="TZznOt2yjFlhheveqHtz-70" style="rounded=0;orthogonalLoop=1;jettySize=auto;html=1;exitX=1;exitY=1;exitDx=0;exitDy=0;entryX=0.5;entryY=0;entryDx=0;entryDy=0;endArrow=none;endFill=0;" parent="1" source="TZznOt2yjFlhheveqHtz-71" target="TZznOt2yjFlhheveqHtz-73" edge="1">
          <mxGeometry relative="1" as="geometry" />
        </mxCell>
        <mxCell id="TZznOt2yjFlhheveqHtz-71" value="5" style="ellipse;whiteSpace=wrap;html=1;aspect=fixed;" parent="1" vertex="1">
          <mxGeometry x="620" y="480" width="40" height="40" as="geometry" />
        </mxCell>
        <mxCell id="TZznOt2yjFlhheveqHtz-72" value="10" style="ellipse;whiteSpace=wrap;html=1;aspect=fixed;" parent="1" vertex="1">
          <mxGeometry x="590" y="540" width="40" height="40" as="geometry" />
        </mxCell>
        <mxCell id="TZznOt2yjFlhheveqHtz-73" value="11" style="ellipse;whiteSpace=wrap;html=1;aspect=fixed;" parent="1" vertex="1">
          <mxGeometry x="650" y="540" width="40" height="40" as="geometry" />
        </mxCell>
        <mxCell id="TZznOt2yjFlhheveqHtz-74" style="rounded=0;orthogonalLoop=1;jettySize=auto;html=1;exitX=0;exitY=0.5;exitDx=0;exitDy=0;entryX=1;entryY=0;entryDx=0;entryDy=0;endArrow=none;endFill=0;" parent="1" source="TZznOt2yjFlhheveqHtz-76" target="TZznOt2yjFlhheveqHtz-63" edge="1">
          <mxGeometry relative="1" as="geometry" />
        </mxCell>
        <mxCell id="TZznOt2yjFlhheveqHtz-75" style="rounded=0;orthogonalLoop=1;jettySize=auto;html=1;exitX=1;exitY=0.5;exitDx=0;exitDy=0;entryX=0;entryY=0;entryDx=0;entryDy=0;endArrow=none;endFill=0;" parent="1" source="TZznOt2yjFlhheveqHtz-76" target="TZznOt2yjFlhheveqHtz-79" edge="1">
          <mxGeometry relative="1" as="geometry">
            <mxPoint x="845.8578643762689" y="425.85786437626905" as="targetPoint" />
          </mxGeometry>
        </mxCell>
        <mxCell id="TZznOt2yjFlhheveqHtz-76" value="1" style="ellipse;whiteSpace=wrap;html=1;aspect=fixed;fillColor=#f8cecc;strokeColor=#b85450;" parent="1" vertex="1">
          <mxGeometry x="680" y="360" width="40" height="40" as="geometry" />
        </mxCell>
        <mxCell id="TZznOt2yjFlhheveqHtz-77" style="rounded=0;orthogonalLoop=1;jettySize=auto;html=1;exitX=0;exitY=0.5;exitDx=0;exitDy=0;entryX=1;entryY=0;entryDx=0;entryDy=0;endArrow=none;endFill=0;" parent="1" source="TZznOt2yjFlhheveqHtz-79" target="TZznOt2yjFlhheveqHtz-82" edge="1">
          <mxGeometry relative="1" as="geometry" />
        </mxCell>
        <mxCell id="TZznOt2yjFlhheveqHtz-78" style="rounded=0;orthogonalLoop=1;jettySize=auto;html=1;exitX=1;exitY=0.5;exitDx=0;exitDy=0;entryX=0;entryY=0;entryDx=0;entryDy=0;endArrow=none;endFill=0;" parent="1" source="TZznOt2yjFlhheveqHtz-79" target="TZznOt2yjFlhheveqHtz-87" edge="1">
          <mxGeometry relative="1" as="geometry" />
        </mxCell>
        <mxCell id="TZznOt2yjFlhheveqHtz-79" value="3" style="ellipse;whiteSpace=wrap;html=1;aspect=fixed;" parent="1" vertex="1">
          <mxGeometry x="800" y="420" width="40" height="40" as="geometry" />
        </mxCell>
        <mxCell id="TZznOt2yjFlhheveqHtz-80" style="rounded=0;orthogonalLoop=1;jettySize=auto;html=1;exitX=1;exitY=1;exitDx=0;exitDy=0;entryX=0.5;entryY=0;entryDx=0;entryDy=0;endArrow=none;endFill=0;" parent="1" source="TZznOt2yjFlhheveqHtz-82" target="TZznOt2yjFlhheveqHtz-84" edge="1">
          <mxGeometry relative="1" as="geometry" />
        </mxCell>
        <mxCell id="TZznOt2yjFlhheveqHtz-81" style="rounded=0;orthogonalLoop=1;jettySize=auto;html=1;exitX=0;exitY=1;exitDx=0;exitDy=0;entryX=0.5;entryY=0;entryDx=0;entryDy=0;endArrow=none;endFill=0;" parent="1" source="TZznOt2yjFlhheveqHtz-82" target="TZznOt2yjFlhheveqHtz-83" edge="1">
          <mxGeometry relative="1" as="geometry" />
        </mxCell>
        <mxCell id="TZznOt2yjFlhheveqHtz-82" value="6" style="ellipse;whiteSpace=wrap;html=1;aspect=fixed;" parent="1" vertex="1">
          <mxGeometry x="740" y="480" width="40" height="40" as="geometry" />
        </mxCell>
        <mxCell id="TZznOt2yjFlhheveqHtz-83" value="12" style="ellipse;whiteSpace=wrap;html=1;aspect=fixed;" parent="1" vertex="1">
          <mxGeometry x="710" y="540" width="40" height="40" as="geometry" />
        </mxCell>
        <mxCell id="TZznOt2yjFlhheveqHtz-84" value="13" style="ellipse;whiteSpace=wrap;html=1;aspect=fixed;" parent="1" vertex="1">
          <mxGeometry x="770" y="540" width="40" height="40" as="geometry" />
        </mxCell>
        <mxCell id="TZznOt2yjFlhheveqHtz-85" style="rounded=0;orthogonalLoop=1;jettySize=auto;html=1;exitX=0;exitY=1;exitDx=0;exitDy=0;entryX=0.5;entryY=0;entryDx=0;entryDy=0;endArrow=none;endFill=0;" parent="1" source="TZznOt2yjFlhheveqHtz-87" target="TZznOt2yjFlhheveqHtz-88" edge="1">
          <mxGeometry relative="1" as="geometry" />
        </mxCell>
        <mxCell id="TZznOt2yjFlhheveqHtz-86" style="rounded=0;orthogonalLoop=1;jettySize=auto;html=1;exitX=1;exitY=1;exitDx=0;exitDy=0;entryX=0.5;entryY=0;entryDx=0;entryDy=0;endArrow=none;endFill=0;" parent="1" source="TZznOt2yjFlhheveqHtz-87" target="TZznOt2yjFlhheveqHtz-89" edge="1">
          <mxGeometry relative="1" as="geometry" />
        </mxCell>
        <mxCell id="TZznOt2yjFlhheveqHtz-87" value="7" style="ellipse;whiteSpace=wrap;html=1;aspect=fixed;" parent="1" vertex="1">
          <mxGeometry x="860" y="480" width="40" height="40" as="geometry" />
        </mxCell>
        <mxCell id="TZznOt2yjFlhheveqHtz-88" value="14" style="ellipse;whiteSpace=wrap;html=1;aspect=fixed;" parent="1" vertex="1">
          <mxGeometry x="830" y="540" width="40" height="40" as="geometry" />
        </mxCell>
        <mxCell id="TZznOt2yjFlhheveqHtz-89" value="15" style="ellipse;whiteSpace=wrap;html=1;aspect=fixed;" parent="1" vertex="1">
          <mxGeometry x="890" y="540" width="40" height="40" as="geometry" />
        </mxCell>
        <mxCell id="TZznOt2yjFlhheveqHtz-90" style="rounded=0;orthogonalLoop=1;jettySize=auto;html=1;exitX=0;exitY=0.5;exitDx=0;exitDy=0;entryX=1;entryY=0;entryDx=0;entryDy=0;endArrow=none;endFill=0;" parent="1" source="TZznOt2yjFlhheveqHtz-92" target="TZznOt2yjFlhheveqHtz-95" edge="1">
          <mxGeometry relative="1" as="geometry" />
        </mxCell>
        <mxCell id="TZznOt2yjFlhheveqHtz-91" style="rounded=0;orthogonalLoop=1;jettySize=auto;html=1;exitX=1;exitY=0.5;exitDx=0;exitDy=0;entryX=0;entryY=0;entryDx=0;entryDy=0;endArrow=none;endFill=0;" parent="1" source="TZznOt2yjFlhheveqHtz-92" target="TZznOt2yjFlhheveqHtz-100" edge="1">
          <mxGeometry relative="1" as="geometry" />
        </mxCell>
        <mxCell id="TZznOt2yjFlhheveqHtz-92" value="2" style="ellipse;whiteSpace=wrap;html=1;aspect=fixed;fillColor=#f8cecc;strokeColor=#b85450;" parent="1" vertex="1">
          <mxGeometry x="560" y="660" width="40" height="40" as="geometry" />
        </mxCell>
        <mxCell id="TZznOt2yjFlhheveqHtz-93" style="rounded=0;orthogonalLoop=1;jettySize=auto;html=1;exitX=1;exitY=1;exitDx=0;exitDy=0;entryX=0.5;entryY=0;entryDx=0;entryDy=0;endArrow=none;endFill=0;" parent="1" source="TZznOt2yjFlhheveqHtz-95" target="TZznOt2yjFlhheveqHtz-97" edge="1">
          <mxGeometry relative="1" as="geometry" />
        </mxCell>
        <mxCell id="TZznOt2yjFlhheveqHtz-94" style="rounded=0;orthogonalLoop=1;jettySize=auto;html=1;exitX=0;exitY=1;exitDx=0;exitDy=0;entryX=0.5;entryY=0;entryDx=0;entryDy=0;endArrow=none;endFill=0;" parent="1" source="TZznOt2yjFlhheveqHtz-95" target="TZznOt2yjFlhheveqHtz-96" edge="1">
          <mxGeometry relative="1" as="geometry" />
        </mxCell>
        <mxCell id="TZznOt2yjFlhheveqHtz-95" value="4" style="ellipse;whiteSpace=wrap;html=1;aspect=fixed;" parent="1" vertex="1">
          <mxGeometry x="500" y="720" width="40" height="40" as="geometry" />
        </mxCell>
        <mxCell id="TZznOt2yjFlhheveqHtz-96" value="8" style="ellipse;whiteSpace=wrap;html=1;aspect=fixed;" parent="1" vertex="1">
          <mxGeometry x="470" y="780" width="40" height="40" as="geometry" />
        </mxCell>
        <mxCell id="TZznOt2yjFlhheveqHtz-97" value="9" style="ellipse;whiteSpace=wrap;html=1;aspect=fixed;" parent="1" vertex="1">
          <mxGeometry x="530" y="780" width="40" height="40" as="geometry" />
        </mxCell>
        <mxCell id="TZznOt2yjFlhheveqHtz-98" style="rounded=0;orthogonalLoop=1;jettySize=auto;html=1;exitX=0;exitY=1;exitDx=0;exitDy=0;entryX=0.5;entryY=0;entryDx=0;entryDy=0;endArrow=none;endFill=0;" parent="1" source="TZznOt2yjFlhheveqHtz-100" target="TZznOt2yjFlhheveqHtz-101" edge="1">
          <mxGeometry relative="1" as="geometry" />
        </mxCell>
        <mxCell id="TZznOt2yjFlhheveqHtz-99" style="rounded=0;orthogonalLoop=1;jettySize=auto;html=1;exitX=1;exitY=1;exitDx=0;exitDy=0;entryX=0.5;entryY=0;entryDx=0;entryDy=0;endArrow=none;endFill=0;" parent="1" source="TZznOt2yjFlhheveqHtz-100" target="TZznOt2yjFlhheveqHtz-102" edge="1">
          <mxGeometry relative="1" as="geometry" />
        </mxCell>
        <mxCell id="TZznOt2yjFlhheveqHtz-100" value="5" style="ellipse;whiteSpace=wrap;html=1;aspect=fixed;" parent="1" vertex="1">
          <mxGeometry x="620" y="720" width="40" height="40" as="geometry" />
        </mxCell>
        <mxCell id="TZznOt2yjFlhheveqHtz-101" value="10" style="ellipse;whiteSpace=wrap;html=1;aspect=fixed;" parent="1" vertex="1">
          <mxGeometry x="590" y="780" width="40" height="40" as="geometry" />
        </mxCell>
        <mxCell id="TZznOt2yjFlhheveqHtz-102" value="11" style="ellipse;whiteSpace=wrap;html=1;aspect=fixed;" parent="1" vertex="1">
          <mxGeometry x="650" y="780" width="40" height="40" as="geometry" />
        </mxCell>
        <mxCell id="TZznOt2yjFlhheveqHtz-103" style="rounded=0;orthogonalLoop=1;jettySize=auto;html=1;exitX=0;exitY=0.5;exitDx=0;exitDy=0;entryX=1;entryY=0;entryDx=0;entryDy=0;endArrow=none;endFill=0;" parent="1" source="TZznOt2yjFlhheveqHtz-105" target="TZznOt2yjFlhheveqHtz-92" edge="1">
          <mxGeometry relative="1" as="geometry" />
        </mxCell>
        <mxCell id="TZznOt2yjFlhheveqHtz-104" style="rounded=0;orthogonalLoop=1;jettySize=auto;html=1;exitX=1;exitY=0.5;exitDx=0;exitDy=0;entryX=0;entryY=0;entryDx=0;entryDy=0;endArrow=none;endFill=0;" parent="1" source="TZznOt2yjFlhheveqHtz-105" target="TZznOt2yjFlhheveqHtz-108" edge="1">
          <mxGeometry relative="1" as="geometry">
            <mxPoint x="845.8578643762689" y="665.857864376269" as="targetPoint" />
          </mxGeometry>
        </mxCell>
        <mxCell id="TZznOt2yjFlhheveqHtz-105" value="1" style="ellipse;whiteSpace=wrap;html=1;aspect=fixed;fillColor=#f8cecc;strokeColor=#b85450;" parent="1" vertex="1">
          <mxGeometry x="680" y="600" width="40" height="40" as="geometry" />
        </mxCell>
        <mxCell id="TZznOt2yjFlhheveqHtz-106" style="rounded=0;orthogonalLoop=1;jettySize=auto;html=1;exitX=0;exitY=0.5;exitDx=0;exitDy=0;entryX=1;entryY=0;entryDx=0;entryDy=0;endArrow=none;endFill=0;" parent="1" source="TZznOt2yjFlhheveqHtz-108" target="TZznOt2yjFlhheveqHtz-111" edge="1">
          <mxGeometry relative="1" as="geometry" />
        </mxCell>
        <mxCell id="TZznOt2yjFlhheveqHtz-107" style="rounded=0;orthogonalLoop=1;jettySize=auto;html=1;exitX=1;exitY=0.5;exitDx=0;exitDy=0;entryX=0;entryY=0;entryDx=0;entryDy=0;endArrow=none;endFill=0;" parent="1" source="TZznOt2yjFlhheveqHtz-108" target="TZznOt2yjFlhheveqHtz-116" edge="1">
          <mxGeometry relative="1" as="geometry" />
        </mxCell>
        <mxCell id="TZznOt2yjFlhheveqHtz-108" value="3" style="ellipse;whiteSpace=wrap;html=1;aspect=fixed;fillColor=#e1d5e7;strokeColor=#9673a6;" parent="1" vertex="1">
          <mxGeometry x="800" y="660" width="40" height="40" as="geometry" />
        </mxCell>
        <mxCell id="TZznOt2yjFlhheveqHtz-109" style="rounded=0;orthogonalLoop=1;jettySize=auto;html=1;exitX=1;exitY=1;exitDx=0;exitDy=0;entryX=0.5;entryY=0;entryDx=0;entryDy=0;endArrow=none;endFill=0;" parent="1" source="TZznOt2yjFlhheveqHtz-111" target="TZznOt2yjFlhheveqHtz-113" edge="1">
          <mxGeometry relative="1" as="geometry" />
        </mxCell>
        <mxCell id="TZznOt2yjFlhheveqHtz-110" style="rounded=0;orthogonalLoop=1;jettySize=auto;html=1;exitX=0;exitY=1;exitDx=0;exitDy=0;entryX=0.5;entryY=0;entryDx=0;entryDy=0;endArrow=none;endFill=0;" parent="1" source="TZznOt2yjFlhheveqHtz-111" target="TZznOt2yjFlhheveqHtz-112" edge="1">
          <mxGeometry relative="1" as="geometry" />
        </mxCell>
        <mxCell id="TZznOt2yjFlhheveqHtz-111" value="6" style="ellipse;whiteSpace=wrap;html=1;aspect=fixed;" parent="1" vertex="1">
          <mxGeometry x="740" y="720" width="40" height="40" as="geometry" />
        </mxCell>
        <mxCell id="TZznOt2yjFlhheveqHtz-112" value="12" style="ellipse;whiteSpace=wrap;html=1;aspect=fixed;" parent="1" vertex="1">
          <mxGeometry x="710" y="780" width="40" height="40" as="geometry" />
        </mxCell>
        <mxCell id="TZznOt2yjFlhheveqHtz-113" value="13" style="ellipse;whiteSpace=wrap;html=1;aspect=fixed;" parent="1" vertex="1">
          <mxGeometry x="770" y="780" width="40" height="40" as="geometry" />
        </mxCell>
        <mxCell id="TZznOt2yjFlhheveqHtz-114" style="rounded=0;orthogonalLoop=1;jettySize=auto;html=1;exitX=0;exitY=1;exitDx=0;exitDy=0;entryX=0.5;entryY=0;entryDx=0;entryDy=0;endArrow=none;endFill=0;" parent="1" source="TZznOt2yjFlhheveqHtz-116" target="TZznOt2yjFlhheveqHtz-117" edge="1">
          <mxGeometry relative="1" as="geometry" />
        </mxCell>
        <mxCell id="TZznOt2yjFlhheveqHtz-115" style="rounded=0;orthogonalLoop=1;jettySize=auto;html=1;exitX=1;exitY=1;exitDx=0;exitDy=0;entryX=0.5;entryY=0;entryDx=0;entryDy=0;endArrow=none;endFill=0;" parent="1" source="TZznOt2yjFlhheveqHtz-116" target="TZznOt2yjFlhheveqHtz-118" edge="1">
          <mxGeometry relative="1" as="geometry" />
        </mxCell>
        <mxCell id="TZznOt2yjFlhheveqHtz-116" value="7" style="ellipse;whiteSpace=wrap;html=1;aspect=fixed;" parent="1" vertex="1">
          <mxGeometry x="860" y="720" width="40" height="40" as="geometry" />
        </mxCell>
        <mxCell id="TZznOt2yjFlhheveqHtz-117" value="14" style="ellipse;whiteSpace=wrap;html=1;aspect=fixed;" parent="1" vertex="1">
          <mxGeometry x="830" y="780" width="40" height="40" as="geometry" />
        </mxCell>
        <mxCell id="TZznOt2yjFlhheveqHtz-118" value="15" style="ellipse;whiteSpace=wrap;html=1;aspect=fixed;" parent="1" vertex="1">
          <mxGeometry x="890" y="780" width="40" height="40" as="geometry" />
        </mxCell>
        <mxCell id="TZznOt2yjFlhheveqHtz-119" style="rounded=0;orthogonalLoop=1;jettySize=auto;html=1;exitX=0;exitY=0.5;exitDx=0;exitDy=0;entryX=1;entryY=0;entryDx=0;entryDy=0;endArrow=none;endFill=0;" parent="1" source="TZznOt2yjFlhheveqHtz-121" target="TZznOt2yjFlhheveqHtz-124" edge="1">
          <mxGeometry relative="1" as="geometry" />
        </mxCell>
        <mxCell id="TZznOt2yjFlhheveqHtz-120" style="rounded=0;orthogonalLoop=1;jettySize=auto;html=1;exitX=1;exitY=0.5;exitDx=0;exitDy=0;entryX=0;entryY=0;entryDx=0;entryDy=0;endArrow=none;endFill=0;" parent="1" source="TZznOt2yjFlhheveqHtz-121" target="TZznOt2yjFlhheveqHtz-129" edge="1">
          <mxGeometry relative="1" as="geometry" />
        </mxCell>
        <mxCell id="TZznOt2yjFlhheveqHtz-121" value="2" style="ellipse;whiteSpace=wrap;html=1;aspect=fixed;fillColor=#f8cecc;strokeColor=#b85450;" parent="1" vertex="1">
          <mxGeometry x="560" y="900" width="40" height="40" as="geometry" />
        </mxCell>
        <mxCell id="TZznOt2yjFlhheveqHtz-122" style="rounded=0;orthogonalLoop=1;jettySize=auto;html=1;exitX=1;exitY=1;exitDx=0;exitDy=0;entryX=0.5;entryY=0;entryDx=0;entryDy=0;endArrow=none;endFill=0;" parent="1" source="TZznOt2yjFlhheveqHtz-124" target="TZznOt2yjFlhheveqHtz-126" edge="1">
          <mxGeometry relative="1" as="geometry" />
        </mxCell>
        <mxCell id="TZznOt2yjFlhheveqHtz-123" style="rounded=0;orthogonalLoop=1;jettySize=auto;html=1;exitX=0;exitY=1;exitDx=0;exitDy=0;entryX=0.5;entryY=0;entryDx=0;entryDy=0;endArrow=none;endFill=0;" parent="1" source="TZznOt2yjFlhheveqHtz-124" target="TZznOt2yjFlhheveqHtz-125" edge="1">
          <mxGeometry relative="1" as="geometry" />
        </mxCell>
        <mxCell id="TZznOt2yjFlhheveqHtz-124" value="4" style="ellipse;whiteSpace=wrap;html=1;aspect=fixed;fillColor=#e1d5e7;strokeColor=#9673a6;" parent="1" vertex="1">
          <mxGeometry x="500" y="960" width="40" height="40" as="geometry" />
        </mxCell>
        <mxCell id="TZznOt2yjFlhheveqHtz-125" value="8" style="ellipse;whiteSpace=wrap;html=1;aspect=fixed;" parent="1" vertex="1">
          <mxGeometry x="470" y="1020" width="40" height="40" as="geometry" />
        </mxCell>
        <mxCell id="TZznOt2yjFlhheveqHtz-126" value="9" style="ellipse;whiteSpace=wrap;html=1;aspect=fixed;" parent="1" vertex="1">
          <mxGeometry x="530" y="1020" width="40" height="40" as="geometry" />
        </mxCell>
        <mxCell id="TZznOt2yjFlhheveqHtz-127" style="rounded=0;orthogonalLoop=1;jettySize=auto;html=1;exitX=0;exitY=1;exitDx=0;exitDy=0;entryX=0.5;entryY=0;entryDx=0;entryDy=0;endArrow=none;endFill=0;" parent="1" source="TZznOt2yjFlhheveqHtz-129" target="TZznOt2yjFlhheveqHtz-130" edge="1">
          <mxGeometry relative="1" as="geometry" />
        </mxCell>
        <mxCell id="TZznOt2yjFlhheveqHtz-128" style="rounded=0;orthogonalLoop=1;jettySize=auto;html=1;exitX=1;exitY=1;exitDx=0;exitDy=0;entryX=0.5;entryY=0;entryDx=0;entryDy=0;endArrow=none;endFill=0;" parent="1" source="TZznOt2yjFlhheveqHtz-129" target="TZznOt2yjFlhheveqHtz-131" edge="1">
          <mxGeometry relative="1" as="geometry" />
        </mxCell>
        <mxCell id="TZznOt2yjFlhheveqHtz-129" value="5" style="ellipse;whiteSpace=wrap;html=1;aspect=fixed;" parent="1" vertex="1">
          <mxGeometry x="620" y="960" width="40" height="40" as="geometry" />
        </mxCell>
        <mxCell id="TZznOt2yjFlhheveqHtz-130" value="10" style="ellipse;whiteSpace=wrap;html=1;aspect=fixed;" parent="1" vertex="1">
          <mxGeometry x="590" y="1020" width="40" height="40" as="geometry" />
        </mxCell>
        <mxCell id="TZznOt2yjFlhheveqHtz-131" value="11" style="ellipse;whiteSpace=wrap;html=1;aspect=fixed;" parent="1" vertex="1">
          <mxGeometry x="650" y="1020" width="40" height="40" as="geometry" />
        </mxCell>
        <mxCell id="TZznOt2yjFlhheveqHtz-132" style="rounded=0;orthogonalLoop=1;jettySize=auto;html=1;exitX=0;exitY=0.5;exitDx=0;exitDy=0;entryX=1;entryY=0;entryDx=0;entryDy=0;endArrow=none;endFill=0;" parent="1" source="TZznOt2yjFlhheveqHtz-134" target="TZznOt2yjFlhheveqHtz-121" edge="1">
          <mxGeometry relative="1" as="geometry" />
        </mxCell>
        <mxCell id="TZznOt2yjFlhheveqHtz-133" style="rounded=0;orthogonalLoop=1;jettySize=auto;html=1;exitX=1;exitY=0.5;exitDx=0;exitDy=0;entryX=0;entryY=0;entryDx=0;entryDy=0;endArrow=none;endFill=0;" parent="1" source="TZznOt2yjFlhheveqHtz-134" target="TZznOt2yjFlhheveqHtz-137" edge="1">
          <mxGeometry relative="1" as="geometry">
            <mxPoint x="845.8578643762689" y="905.857864376269" as="targetPoint" />
          </mxGeometry>
        </mxCell>
        <mxCell id="TZznOt2yjFlhheveqHtz-134" value="1" style="ellipse;whiteSpace=wrap;html=1;aspect=fixed;fillColor=#f8cecc;strokeColor=#b85450;" parent="1" vertex="1">
          <mxGeometry x="680" y="840" width="40" height="40" as="geometry" />
        </mxCell>
        <mxCell id="TZznOt2yjFlhheveqHtz-135" style="rounded=0;orthogonalLoop=1;jettySize=auto;html=1;exitX=0;exitY=0.5;exitDx=0;exitDy=0;entryX=1;entryY=0;entryDx=0;entryDy=0;endArrow=none;endFill=0;" parent="1" source="TZznOt2yjFlhheveqHtz-137" target="TZznOt2yjFlhheveqHtz-140" edge="1">
          <mxGeometry relative="1" as="geometry" />
        </mxCell>
        <mxCell id="TZznOt2yjFlhheveqHtz-136" style="rounded=0;orthogonalLoop=1;jettySize=auto;html=1;exitX=1;exitY=0.5;exitDx=0;exitDy=0;entryX=0;entryY=0;entryDx=0;entryDy=0;endArrow=none;endFill=0;" parent="1" source="TZznOt2yjFlhheveqHtz-137" target="TZznOt2yjFlhheveqHtz-145" edge="1">
          <mxGeometry relative="1" as="geometry" />
        </mxCell>
        <mxCell id="TZznOt2yjFlhheveqHtz-137" value="3" style="ellipse;whiteSpace=wrap;html=1;aspect=fixed;fillColor=#f8cecc;strokeColor=#b85450;" parent="1" vertex="1">
          <mxGeometry x="800" y="900" width="40" height="40" as="geometry" />
        </mxCell>
        <mxCell id="TZznOt2yjFlhheveqHtz-138" style="rounded=0;orthogonalLoop=1;jettySize=auto;html=1;exitX=1;exitY=1;exitDx=0;exitDy=0;entryX=0.5;entryY=0;entryDx=0;entryDy=0;endArrow=none;endFill=0;" parent="1" source="TZznOt2yjFlhheveqHtz-140" target="TZznOt2yjFlhheveqHtz-142" edge="1">
          <mxGeometry relative="1" as="geometry" />
        </mxCell>
        <mxCell id="TZznOt2yjFlhheveqHtz-139" style="rounded=0;orthogonalLoop=1;jettySize=auto;html=1;exitX=0;exitY=1;exitDx=0;exitDy=0;entryX=0.5;entryY=0;entryDx=0;entryDy=0;endArrow=none;endFill=0;" parent="1" source="TZznOt2yjFlhheveqHtz-140" target="TZznOt2yjFlhheveqHtz-141" edge="1">
          <mxGeometry relative="1" as="geometry" />
        </mxCell>
        <mxCell id="TZznOt2yjFlhheveqHtz-140" value="6" style="ellipse;whiteSpace=wrap;html=1;aspect=fixed;" parent="1" vertex="1">
          <mxGeometry x="740" y="960" width="40" height="40" as="geometry" />
        </mxCell>
        <mxCell id="TZznOt2yjFlhheveqHtz-141" value="12" style="ellipse;whiteSpace=wrap;html=1;aspect=fixed;" parent="1" vertex="1">
          <mxGeometry x="710" y="1020" width="40" height="40" as="geometry" />
        </mxCell>
        <mxCell id="TZznOt2yjFlhheveqHtz-142" value="13" style="ellipse;whiteSpace=wrap;html=1;aspect=fixed;" parent="1" vertex="1">
          <mxGeometry x="770" y="1020" width="40" height="40" as="geometry" />
        </mxCell>
        <mxCell id="TZznOt2yjFlhheveqHtz-143" style="rounded=0;orthogonalLoop=1;jettySize=auto;html=1;exitX=0;exitY=1;exitDx=0;exitDy=0;entryX=0.5;entryY=0;entryDx=0;entryDy=0;endArrow=none;endFill=0;" parent="1" source="TZznOt2yjFlhheveqHtz-145" target="TZznOt2yjFlhheveqHtz-146" edge="1">
          <mxGeometry relative="1" as="geometry" />
        </mxCell>
        <mxCell id="TZznOt2yjFlhheveqHtz-144" style="rounded=0;orthogonalLoop=1;jettySize=auto;html=1;exitX=1;exitY=1;exitDx=0;exitDy=0;entryX=0.5;entryY=0;entryDx=0;entryDy=0;endArrow=none;endFill=0;" parent="1" source="TZznOt2yjFlhheveqHtz-145" target="TZznOt2yjFlhheveqHtz-147" edge="1">
          <mxGeometry relative="1" as="geometry" />
        </mxCell>
        <mxCell id="TZznOt2yjFlhheveqHtz-145" value="7" style="ellipse;whiteSpace=wrap;html=1;aspect=fixed;" parent="1" vertex="1">
          <mxGeometry x="860" y="960" width="40" height="40" as="geometry" />
        </mxCell>
        <mxCell id="TZznOt2yjFlhheveqHtz-146" value="14" style="ellipse;whiteSpace=wrap;html=1;aspect=fixed;" parent="1" vertex="1">
          <mxGeometry x="830" y="1020" width="40" height="40" as="geometry" />
        </mxCell>
        <mxCell id="TZznOt2yjFlhheveqHtz-147" value="15" style="ellipse;whiteSpace=wrap;html=1;aspect=fixed;" parent="1" vertex="1">
          <mxGeometry x="890" y="1020" width="40" height="40" as="geometry" />
        </mxCell>
      </root>
    </mxGraphModel>
  </diagram>
</mxfile>
